#!OML:ASF Y:\EmotionMaleHayes\Project 1\Capture day 1\Session 1\Male1.ASF
:FULLY-SPECIFIED
:DEGREES
29
root -30.249 17.0938 0.889552 28.5441 85.7666 30.3291
lowerback 5.32727 2.0302 -5.01309
upperback 0.844 2.4297 -0.289618
thorax -2.31038 1.25907 2.33132
lowerneck -21.1695 1.74328 2.56158
upperneck 25.9621 1.85431 0.0399299
head 12.0968 1.19696 -0.0886554
rclavicle 7.09102e-015 -1.22253e-014
rhumerus -34.6388 5.96464 -90.4208
rradius 29.746
rwrist 5.38884
rhand -9.12195 -31.4999
rfingers 7.12502
rthumb 16.829 -60.7906
lclavicle 7.09102e-015 -1.22253e-014
lhumerus -31.2559 -7.96485 92.762
lradius 22.1111
lwrist -18.1915
lhand -16.233 -28.5333
lfingers 7.12502
lthumb 9.9754 1.21033
rfemur 7.87969 -2.93669 12.6085
rtibia 4.78925
rfoot -15.701 -2.31265
rtoes 13.6295
lfemur 11.7684 -1.9336 -18.2874
ltibia -0.355507
lfoot -11.9103 11.2842
ltoes -9.03074
30
root -30.2464 17.0933 0.888108 28.6452 85.7601 30.4556
lowerback 5.32944 2.0478 -4.9824
upperback 0.852068 2.45461 -0.322608
thorax -2.30246 1.27095 2.27825
lowerneck -21.2223 1.73823 2.60258
upperneck 26.0082 1.836 0.0260737
head 12.1259 1.19152 -0.102958
rclavicle -6.62201e-015 1.88845e-015
rhumerus -34.6314 5.9223 -90.4561
rradius 29.7505
rwrist 5.5065
rhand -9.28726 -31.6142
rfingers 7.12502
rthumb 16.6699 -60.9184
lclavicle -6.62201e-015 1.88845e-015
lhumerus -31.2326 -8.04573 92.7524
lradius 22.1015
lwrist -18.1139
lhand -15.352 -28.5048
lfingers 7.12502
lthumb 10.8252 1.19623
rfemur 7.93863 -2.92463 12.5835
rtibia 4.7524
rfoot -15.6845 -2.28868
rtoes 13.8172
lfemur 11.8935 -2.21282 -18.4215
ltibia -0.517706
lfoot -11.9111 11.5368
ltoes -8.47027
31
root -30.2428 17.0932 0.886332 26.8087 85.8088 28.6148
lowerback 5.28679 2.04264 -4.76854
upperback 0.852142 2.4618 -0.335336
thorax -2.26962 1.27195 2.14665
lowerneck -21.1102 1.71748 2.66485
upperneck 25.789 1.80383 -0.0513865
head 12.0188 1.16946 -0.150554
rclavicle 1.24365e-014 1.19271e-015
rhumerus -34.6216 5.95998 -90.5641
rradius 29.7908
rwrist 5.55587
rhand -9.23047 -32.062
rfingers 7.12502
rthumb 16.7246 -61.3616
lclavicle 1.24365e-014 1.19271e-015
lhumerus -31.2863 -8.47052 92.8365
lradius 22.1731
lwrist -17.6876
lhand -15.7284 -28.3387
lfingers 7.12502
lthumb 10.4621 1.38096
rfemur 7.9561 -2.88335 12.7666
rtibia 4.73602
rfoot -15.628 -2.3557
rtoes 14.0816
lfemur 11.8621 -1.82312 -18.1092
ltibia -0.432003
lfoot -11.9202 11.0797
ltoes -8.22905
32
root -30.2406 17.0931 0.88683 25.4235 85.8559 27.1749
lowerback 5.19391 2.01668 -4.70825
upperback 0.826526 2.43537 -0.276589
thorax -2.24231 1.25791 2.17832
lowerneck -20.6291 1.61801 2.88871
upperneck 25.1272 1.77958 -0.727889
head 11.6757 1.08152 -0.451956
rclavicle 1.51573e-015 -1.35174e-014
rhumerus -34.6335 6.0446 -90.5441
rradius 29.7942
rwrist 5.45945
rhand -9.10587 -32.0117
rfingers 7.12502
rthumb 16.8445 -61.3011
lclavicle 1.51573e-015 -1.35174e-014
lhumerus -31.3613 -8.48082 92.8841
lradius 22.2337
lwrist -17.6324
lhand -15.8851 -28.4024
lfingers 7.12502
lthumb 10.311 1.32479
rfemur 7.9026 -2.88836 12.9314
rtibia 4.738
rfoot -15.5908 -2.48622
rtoes 13.8883
lfemur 11.7493 -1.43952 -17.8169
ltibia -0.310668
lfoot -11.8075 10.7147
ltoes -9.13479
33
root -30.2387 17.0958 0.887327 25.908 85.9266 27.7289
lowerback 5.26704 1.99146 -4.72479
upperback 0.816411 2.39665 -0.267469
thorax -2.29188 1.23996 2.19724
lowerneck -20.7781 1.67377 2.66535
upperneck 25.494 1.79872 -0.227493
head 11.8398 1.14096 -0.221987
rclavicle 2.15868e-014 -1.33186e-014
rhumerus -34.6889 6.05316 -90.5316
rradius 29.8119
rwrist 5.38843
rhand -9.19011 -31.8349
rfingers 7.12502
rthumb 16.7634 -61.1311
lclavicle 2.15868e-014 -1.33186e-014
lhumerus -31.4394 -8.32696 92.8471
lradius 22.2798
lwrist -17.795
lhand -16.1167 -28.4198
lfingers 7.12502
lthumb 10.0876 1.31839
rfemur 8.05306 -2.70346 12.9945
rtibia 4.62664
rfoot -15.6701 -2.74101
rtoes 13.749
lfemur 11.907 -1.87316 -17.9736
ltibia -0.475018
lfoot -11.7602 11.1403
ltoes -9.41518
34
root -30.236 17.0937 0.888427 26.7297 85.9024 28.4957
lowerback 5.18503 2.00053 -4.80703
upperback 0.797131 2.40774 -0.279526
thorax -2.26959 1.24589 2.23229
lowerneck -20.7106 1.63735 2.69505
upperneck 25.4367 1.79946 -0.437615
head 11.8065 1.11567 -0.306074
rclavicle 7.92654e-015 -1.2921e-015
rhumerus -34.7197 6.04416 -90.5005
rradius 29.8802
rwrist 5.31345
rhand -9.22154 -31.7181
rfingers 7.12502
rthumb 16.7332 -61.017
lclavicle 7.92654e-015 -1.2921e-015
lhumerus -31.4381 -8.35497 92.8601
lradius 22.2697
lwrist -17.7471
lhand -16.4049 -28.4034
lfingers 7.12502
lthumb 9.80957 1.34811
rfemur 8.01817 -2.46723 13.0172
rtibia 4.59746
rfoot -15.7808 -2.91407
rtoes 13.8939
lfemur 11.9268 -2.12214 -18.1456
ltibia -0.600503
lfoot -11.7287 11.446
ltoes -9.28046
